<?xml version="1.0" encoding="utf-8"?>
<!-- Generator: Adobe Illustrator 21.0.0, SVG Export Plug-In . SVG Version: 6.00 Build 0)  -->
<svg version="1.1" id="Svgs" xmlns="http://www.w3.org/2000/svg" xmlns:xlink="http://www.w3.org/1999/xlink" x="0px" y="0px"
	 viewBox="0 0 30 30" style="enable-background:new 0 0 30 30;" xml:space="preserve">
<style type="text/css">
	.st0{fill:none;stroke:#FFFFFF;stroke-width:3;stroke-miterlimit:10;}
	.st1{fill:#FFFFFF;}
</style>
<g id="success_x5F_icon_1_">
	<circle class="st0" cx="15" cy="15" r="13.5"/>
	<g>
		<path class="st1" d="M19.6,12.2c0,0.5-0.1,1-0.3,1.3c-0.2,0.4-0.4,0.7-0.6,1.1c-0.3,0.3-0.5,0.6-0.8,0.9s-0.6,0.5-0.9,0.8
			c-0.6,0.7-0.9,1.4-0.9,2.2h-1.5c0-1.3,0.6-2.5,1.7-3.5c0.7-0.6,1.2-1.2,1.4-1.6c0.2-0.4,0.3-0.8,0.3-1.2c0-0.4,0-0.7-0.1-0.9
			c-0.1-0.3-0.2-0.5-0.4-0.8c-0.5-0.5-1.2-0.8-2.1-0.8c-1,0-1.8,0.3-2.4,0.9c-0.6,0.5-0.9,1.2-0.9,2h-1.5c0.1-1.2,0.5-2.2,1.3-3
			c0.9-0.9,2-1.3,3.3-1.3c1.4,0,2.5,0.4,3.3,1.2C19.3,10.3,19.6,11.2,19.6,12.2z M16.4,20.3v2.1h-2v-2.1H16.4z"/>
	</g>
</g>
</svg>
