<?xml version="1.0" encoding="utf-8"?>
<!-- Generator: Adobe Illustrator 21.0.0, SVG Export Plug-In . SVG Version: 6.00 Build 0)  -->
<svg version="1.1" id="Layer_1" xmlns="http://www.w3.org/2000/svg" xmlns:xlink="http://www.w3.org/1999/xlink" x="0px" y="0px"
	 viewBox="0 0 87.8 123.7" style="enable-background:new 0 0 87.8 123.7;" xml:space="preserve">
<style type="text/css">
	.st0{fill:none;stroke:#54CA91;stroke-width:2;stroke-miterlimit:10;}
	.st1{opacity:0.86;fill:none;stroke:#333A3B;stroke-miterlimit:10;}
	.st2{opacity:0.86;}
	.st3{fill:none;stroke:#333A3B;stroke-miterlimit:10;}
	.st4{fill:none;stroke:#000000;stroke-width:2;stroke-miterlimit:10;}
</style>
<g id="data_x5F_entry_x5F_icon_x5F_grp">
	<polygon class="st0" points="86.8,122.7 1,122.7 1,1 71.1,1 69.2,19.4 86.8,19 	"/>
	<rect x="9.5" y="15.4" class="st0" width="18" height="18"/>
	<line class="st0" x1="9.5" y1="43.4" x2="77.8" y2="43.4"/>
	<line class="st0" x1="9.5" y1="52.2" x2="77.8" y2="52.2"/>
	<line class="st0" x1="9.5" y1="61" x2="77.8" y2="61"/>
	<line class="st0" x1="9.5" y1="69.8" x2="77.8" y2="69.8"/>
	<g>
		<rect x="9.5" y="78.5" class="st0" width="68.3" height="34.6"/>
		<rect x="14.7" y="84.2" class="st0" width="5.6" height="5.6"/>
		<rect x="23.4" y="84.2" class="st0" width="5.6" height="5.6"/>
		<rect x="32.1" y="84.2" class="st0" width="5.6" height="5.6"/>
		<rect x="40.7" y="84.2" class="st0" width="5.6" height="5.6"/>
		<rect x="49.4" y="84.2" class="st0" width="5.6" height="5.6"/>
		<rect x="58.1" y="84.2" class="st0" width="5.6" height="5.6"/>
		<rect x="66.7" y="84.2" class="st0" width="5.6" height="5.6"/>
		<rect x="14.7" y="93.7" class="st0" width="5.6" height="5.6"/>
		<rect x="23.4" y="93.7" class="st0" width="5.6" height="5.6"/>
		<rect x="32.1" y="93.7" class="st0" width="5.6" height="5.6"/>
		<rect x="40.7" y="93.7" class="st0" width="5.6" height="5.6"/>
		<rect x="49.4" y="93.7" class="st0" width="5.6" height="5.6"/>
		<rect x="58.1" y="93.7" class="st0" width="5.6" height="5.6"/>
		<rect x="66.7" y="93.7" class="st0" width="5.6" height="5.6"/>
		<rect x="14.7" y="103.1" class="st0" width="5.6" height="5.6"/>
		<rect x="21.9" y="103.1" class="st0" width="7.1" height="5.6"/>
		
			<rect x="67.9" y="103.1" transform="matrix(-1 -1.224647e-16 1.224647e-16 -1 141.4657 211.948)" class="st0" width="5.6" height="5.6"/>
		
			<rect x="58.8" y="103.1" transform="matrix(-1 -1.224647e-16 1.224647e-16 -1 125.1134 211.948)" class="st0" width="7.6" height="5.6"/>
		<rect x="31.3" y="103.1" class="st0" width="25.7" height="5.6"/>
	</g>
</g>
</svg>
