<?xml version="1.0" encoding="utf-8"?>
<!-- Generator: Adobe Illustrator 21.0.0, SVG Export Plug-In . SVG Version: 6.00 Build 0)  -->
<svg version="1.1" id="Layer_1" xmlns="http://www.w3.org/2000/svg" xmlns:xlink="http://www.w3.org/1999/xlink" x="0px" y="0px"
	 viewBox="0 0 45 62" style="enable-background:new 0 0 45 62;" xml:space="preserve">
<style type="text/css">
	.st0{fill:none;stroke:#54AEF6;stroke-miterlimit:10;}
</style>
<g>
	<g>
		<circle class="st0" cx="22.5" cy="41" r="11.4"/>
		<path class="st0" d="M33.9,38c1.4,0,2.5,1.1,2.5,2.5s-1.1,2.5-2.5,2.5"/>
		<path class="st0" d="M11.1,38c-1.4,0-2.5,1.1-2.5,2.5s1.1,2.5,2.5,2.5"/>
		<circle class="st0" cx="20.8" cy="39.2" r="0.6"/>
		<circle class="st0" cx="23.9" cy="39.2" r="0.6"/>
		<path class="st0" d="M29,42.4c0,3-3,5.5-6.7,5.5s-6.7-2.4-6.7-5.5"/>
	</g>
	<path class="st0" d="M14.5,61.5c-8.2-3.2-14-11.2-14-20.5c0-12.2,9.8-22,22-22s22,9.8,22,22c0,8.9-5.3,16.6-12.9,20"/>
	<circle class="st0" cx="22.5" cy="8.7" r="8.2"/>
</g>
</svg>
